<svg id="svg" xmlns="http://www.w3.org/2000/svg" xmlns:xlink="http://www.w3.org/1999/xlink" width="40" height="40" viewBox="0, 0, 400,400"><g id="svgg"><path id="path0" d="M166.000 46.864 C 158.850 48.379,148.050 51.429,142.000 53.641 C 135.950 55.853,125.600 59.130,119.000 60.922 C 47.300 80.391,5.898 131.228,6.035 199.631 C 6.151 257.806,38.543 304.233,68.285 288.853 C 71.633 287.121,74.631 285.996,74.949 286.353 C 75.266 286.709,78.269 292.400,81.622 299.000 C 128.921 392.109,288.752 386.235,322.245 290.157 C 324.420 283.918,326.790 282.424,328.954 285.926 C 338.496 301.365,369.356 284.648,382.274 257.042 C 420.398 175.574,371.774 83.307,278.473 60.074 C 269.963 57.954,255.800 53.828,247.000 50.904 C 227.219 44.330,187.334 42.341,166.000 46.864 M241.164 66.848 L 257.328 71.962 263.966 106.481 C 276.175 169.972,291.019 223.152,304.945 253.294 C 313.710 272.264,313.750 271.218,303.500 290.587 C 285.329 324.923,248.666 350.000,216.637 350.000 L 208.000 350.000 208.000 331.497 L 208.000 312.993 217.003 308.217 C 254.154 288.508,248.347 263.428,205.960 260.522 C 156.531 257.134,144.081 282.732,183.152 307.415 L 191.993 313.000 191.996 331.758 L 192.000 350.517 180.036 349.163 C 141.084 344.756,107.983 319.593,91.190 281.623 L 86.388 270.762 93.193 256.881 C 106.987 228.746,120.946 180.110,134.722 112.187 L 143.000 71.374 154.000 67.618 C 180.664 58.513,213.893 58.219,241.164 66.848 M116.095 120.018 C 96.947 212.806,72.519 276.000,55.800 276.000 C 47.060 276.000,29.433 247.750,24.939 226.540 C 11.519 163.210,45.422 103.932,107.686 81.857 C 126.585 75.156,125.949 72.267,116.095 120.018 M299.000 84.574 C 365.580 111.647,397.406 189.256,366.947 250.262 C 348.522 287.167,334.106 281.983,314.062 231.244 C 303.150 203.620,276.000 95.686,276.000 79.927 C 276.000 76.560,282.545 77.882,299.000 84.574 M143.525 167.131 C 130.371 174.268,127.756 195.427,138.569 207.226 C 155.879 226.115,185.587 212.784,183.369 187.124 C 181.729 168.155,160.900 157.703,143.525 167.131 M222.774 170.569 C 217.116 175.754,215.390 179.054,214.580 186.237 C 210.882 219.046,257.187 227.995,265.974 196.170 C 272.983 170.784,242.349 152.629,222.774 170.569 M164.870 183.857 C 172.354 192.127,160.269 204.483,152.008 197.007 C 147.523 192.948,146.762 186.038,150.400 182.400 C 153.994 178.806,160.931 179.504,164.870 183.857 M248.593 184.190 C 251.415 188.701,248.724 197.501,244.071 198.977 C 239.000 200.587,232.628 197.128,230.955 191.859 C 228.028 182.637,243.431 175.940,248.593 184.190 M220.883 279.232 C 225.729 281.091,206.724 298.000,199.788 298.000 C 197.405 298.000,178.000 282.040,178.000 280.080 C 178.000 276.394,211.748 275.727,220.883 279.232 " stroke="none" fill="#ffffff" fill-rule="evenodd"></path></g></svg>